{"asset":{"version":"2.0","generator":"Blockbench 5.0.7 glTF exporter"},"scenes":[{"nodes":[18],"name":"blockbench_export"}],"scene":0,"nodes":[{"translation":[0,0.9375,0],"name":"bone9"},{"translation":[0,0.5625,0],"name":"Head","children":[0]},{"translation":[0,0.375,0],"name":"bone7"},{"translation":[0,0.3125,0],"name":"bone5","children":[2]},{"rotation":[0,0,-0.9238795325112867,0.38268343236508984],"translation":[0.25,0.34375,0],"name":"ArmL","children":[3]},{"translation":[0,0.375,0],"name":"bone8"},{"translation":[0,0.3125,0],"name":"bone6","children":[5]},{"rotation":[0,0,0.9238795325112867,0.38268343236508984],"translation":[-0.25,0.34375,0],"name":"ArmL2","children":[6]},{"translation":[0,0.5,0],"name":"Chest","children":[1,4,7]},{"rotation":[0,0,0.3826834323650898,0.9238795325112867],"translation":[-0.359375,1.859375,0],"name":"EarL"},{"rotation":[0,0,-0.3826834323650898,0.9238795325112867],"translation":[0.359375,1.859375,0],"name":"EarR"},{"rotation":[-0.7071067811865475,0,0,0.7071067811865476],"translation":[0,0.5,0],"name":"bone2"},{"translation":[0,0.1875,0],"name":"bone","children":[11]},{"rotation":[0,0,-1,6.123233995736766e-17],"translation":[0.234375,-0.03125,0],"name":"LegR","children":[12]},{"rotation":[-0.7071067811865475,0,0,0.7071067811865476],"translation":[0,0.5,0],"name":"bone4"},{"translation":[0,0.1875,0],"name":"bone3","children":[14]},{"rotation":[0,0,-1,6.123233995736766e-17],"translation":[-0.234375,-0.03125,0],"name":"LegR2","children":[15]},{"translation":[0,0.8125,0],"name":"Torso","children":[8,9,10,13,16]},{"name":"armature","mesh":0,"children":[17],"skin":0}],"bufferViews":[{"buffer":0,"byteOffset":0,"byteLength":30036,"target":34962,"byteStride":12},{"buffer":0,"byteOffset":30036,"byteLength":30036,"target":34962,"byteStride":12},{"buffer":0,"byteOffset":60072,"byteLength":20024,"target":34962,"byteStride":8},{"buffer":0,"byteOffset":80096,"byteLength":20024,"target":34962,"byteStride":8},{"buffer":0,"byteOffset":100120,"byteLength":40048,"target":34962,"byteStride":16},{"buffer":0,"byteOffset":140168,"byteLength":504,"target":34963},{"buffer":0,"byteOffset":140672,"byteLength":68,"target":34963},{"buffer":0,"byteOffset":140740,"byteLength":336,"target":34963},{"buffer":0,"byteOffset":141076,"byteLength":60,"target":34963},{"buffer":0,"byteOffset":141136,"byteLength":120,"target":34963},{"buffer":0,"byteOffset":141256,"byteLength":264,"target":34963},{"buffer":0,"byteOffset":141520,"byteLength":120,"target":34963},{"buffer":0,"byteOffset":141640,"byteLength":264,"target":34963},{"buffer":0,"byteOffset":141904,"byteLength":720,"target":34963},{"buffer":0,"byteOffset":142624,"byteLength":720,"target":34963},{"buffer":0,"byteOffset":143344,"byteLength":36,"target":34963},{"buffer":0,"byteOffset":143380,"byteLength":72,"target":34963},{"buffer":0,"byteOffset":143452,"byteLength":360,"target":34963},{"buffer":0,"byteOffset":143812,"byteLength":8,"target":34963},{"buffer":0,"byteOffset":143820,"byteLength":96,"target":34963},{"buffer":0,"byteOffset":143916,"byteLength":60,"target":34963},{"buffer":0,"byteOffset":143976,"byteLength":120,"target":34963},{"buffer":0,"byteOffset":144096,"byteLength":264,"target":34963},{"buffer":0,"byteOffset":144360,"byteLength":120,"target":34963},{"buffer":0,"byteOffset":144480,"byteLength":264,"target":34963},{"buffer":0,"byteOffset":144744,"byteLength":720,"target":34963},{"buffer":0,"byteOffset":145464,"byteLength":720,"target":34963},{"buffer":0,"byteOffset":146184,"byteLength":8,"target":34963},{"buffer":0,"byteOffset":146192,"byteLength":72,"target":34963},{"buffer":0,"byteOffset":146264,"byteLength":792,"target":34963},{"buffer":0,"byteOffset":147056,"byteLength":1152},{"buffer":0,"byteOffset":148208,"byteLength":8},{"buffer":0,"byteOffset":148216,"byteLength":24},{"buffer":0,"byteOffset":148240,"byteLength":20},{"buffer":0,"byteOffset":148260,"byteLength":60},{"buffer":0,"byteOffset":148320,"byteLength":20},{"buffer":0,"byteOffset":148340,"byteLength":80},{"buffer":0,"byteOffset":148420,"byteLength":28},{"buffer":0,"byteOffset":148448,"byteLength":112},{"buffer":0,"byteOffset":148560,"byteLength":24},{"buffer":0,"byteOffset":148584,"byteLength":96},{"buffer":0,"byteOffset":148680,"byteLength":8},{"buffer":0,"byteOffset":148688,"byteLength":24},{"buffer":0,"byteOffset":148712,"byteLength":28},{"buffer":0,"byteOffset":148740,"byteLength":112},{"buffer":0,"byteOffset":148852,"byteLength":28},{"buffer":0,"byteOffset":148880,"byteLength":112},{"buffer":0,"byteOffset":148992,"byteLength":20},{"buffer":0,"byteOffset":149012,"byteLength":80},{"buffer":0,"byteOffset":149092,"byteLength":20},{"buffer":0,"byteOffset":149112,"byteLength":80},{"buffer":0,"byteOffset":149192,"byteLength":4},{"buffer":0,"byteOffset":149196,"byteLength":12},{"buffer":0,"byteOffset":149208,"byteLength":24},{"buffer":0,"byteOffset":149232,"byteLength":96},{"buffer":0,"byteOffset":149328,"byteLength":20},{"buffer":0,"byteOffset":149348,"byteLength":80},{"buffer":0,"byteOffset":149428,"byteLength":4},{"buffer":0,"byteOffset":149432,"byteLength":12},{"buffer":0,"byteOffset":149444,"byteLength":4},{"buffer":0,"byteOffset":149448,"byteLength":16},{"buffer":0,"byteOffset":149464,"byteLength":4},{"buffer":0,"byteOffset":149468,"byteLength":12},{"buffer":0,"byteOffset":149480,"byteLength":4},{"buffer":0,"byteOffset":149484,"byteLength":12},{"buffer":0,"byteOffset":149496,"byteLength":4},{"buffer":0,"byteOffset":149500,"byteLength":12},{"buffer":0,"byteOffset":149512,"byteLength":4},{"buffer":0,"byteOffset":149516,"byteLength":16},{"buffer":0,"byteOffset":149532,"byteLength":4},{"buffer":0,"byteOffset":149536,"byteLength":12},{"buffer":0,"byteOffset":149548,"byteLength":4},{"buffer":0,"byteOffset":149552,"byteLength":16},{"buffer":0,"byteOffset":149568,"byteLength":4},{"buffer":0,"byteOffset":149572,"byteLength":16},{"buffer":0,"byteOffset":149588,"byteLength":4},{"buffer":0,"byteOffset":149592,"byteLength":16}],"buffers":[{"byteLength":149608,"uri":"data:application/octet-stream;base64,"}],"accessors":[{"bufferView":0,"componentType":5126,"count":2503,"max":[1.0273237228393555,3.0939407348632812,0.5635824799537659],"min":[-1.0273237228393555,0.015625,-0.560057520866394],"type":"VEC3"},{"bufferView":1,"componentType":5126,"count":2503,"max":[1,1,1],"min":[-1,-1,-1],"type":"VEC3"},{"bufferView":2,"componentType":5126,"count":2503,"max":[1.453125,1.484375],"min":[-0.1585562527179718,0],"type":"VEC2"},{"bufferView":3,"componentType":5123,"count":2503,"max":[17,9,0,0],"min":[0,0,0,0],"type":"VEC4"},{"bufferView":4,"componentType":5126,"count":2503,"max":[1,0.5,0,0],"min":[0,0,0,0],"type":"VEC4"},{"bufferView":5,"componentType":5123,"count":252,"max":[181],"min":[0],"type":"SCALAR"},{"bufferView":6,"componentType":5123,"count":33,"max":[210],"min":[182],"type":"SCALAR"},{"bufferView":7,"componentType":5123,"count":168,"max":[326],"min":[211],"type":"SCALAR"},{"bufferView":8,"componentType":5123,"count":30,"max":[346],"min":[327],"type":"SCALAR"},{"bufferView":9,"componentType":5123,"count":60,"max":[386],"min":[347],"type":"SCALAR"},{"bufferView":10,"componentType":5123,"count":132,"max":[482],"min":[387],"type":"SCALAR"},{"bufferView":11,"componentType":5123,"count":60,"max":[522],"min":[483],"type":"SCALAR"},{"bufferView":12,"componentType":5123,"count":132,"max":[618],"min":[523],"type":"SCALAR"},{"bufferView":13,"componentType":5123,"count":360,"max":[882],"min":[619],"type":"SCALAR"},{"bufferView":14,"componentType":5123,"count":360,"max":[1146],"min":[883],"type":"SCALAR"},{"bufferView":15,"componentType":5123,"count":18,"max":[1162],"min":[1147],"type":"SCALAR"},{"bufferView":16,"componentType":5123,"count":36,"max":[1194],"min":[1163],"type":"SCALAR"},{"bufferView":17,"componentType":5123,"count":180,"max":[1324],"min":[1195],"type":"SCALAR"},{"bufferView":18,"componentType":5123,"count":3,"max":[1327],"min":[1325],"type":"SCALAR"},{"bufferView":19,"componentType":5123,"count":48,"max":[1359],"min":[1328],"type":"SCALAR"},{"bufferView":20,"componentType":5123,"count":30,"max":[1379],"min":[1360],"type":"SCALAR"},{"bufferView":21,"componentType":5123,"count":60,"max":[1419],"min":[1380],"type":"SCALAR"},{"bufferView":22,"componentType":5123,"count":132,"max":[1515],"min":[1420],"type":"SCALAR"},{"bufferView":23,"componentType":5123,"count":60,"max":[1555],"min":[1516],"type":"SCALAR"},{"bufferView":24,"componentType":5123,"count":132,"max":[1651],"min":[1556],"type":"SCALAR"},{"bufferView":25,"componentType":5123,"count":360,"max":[1915],"min":[1652],"type":"SCALAR"},{"bufferView":26,"componentType":5123,"count":360,"max":[2179],"min":[1916],"type":"SCALAR"},{"bufferView":27,"componentType":5123,"count":3,"max":[2182],"min":[2180],"type":"SCALAR"},{"bufferView":28,"componentType":5123,"count":36,"max":[2214],"min":[2183],"type":"SCALAR"},{"bufferView":29,"componentType":5123,"count":396,"max":[2502],"min":[2215],"type":"SCALAR"},{"bufferView":30,"componentType":5126,"count":18,"max":[1,0.7071067690849304,1.2246468525851679e-16,0,0.7071067690849304,1,0,0,0,0,1,0,1.635184407234192,0.9943689107894897,0.09375,1],"min":[-1,-0.7071067690849304,0,0,-0.7071067690849304,-1,-1,0,0,-1,2.220446049250313e-16,0,-1.635184407234192,-2.8125,0,1],"type":"MAT4"},{"bufferView":31,"componentType":5126,"count":2,"max":[0.75],"min":[0],"type":"SCALAR"},{"bufferView":32,"componentType":5126,"count":2,"max":[0,0.75,0],"min":[0,0.75,0],"type":"VEC3"},{"bufferView":33,"componentType":5126,"count":5,"max":[0.75],"min":[0],"type":"SCALAR"},{"bufferView":34,"componentType":5126,"count":5,"max":[0,0.5625,0],"min":[0,0.5,0],"type":"VEC3"},{"bufferView":35,"componentType":5126,"count":5,"max":[0.75],"min":[0],"type":"SCALAR"},{"bufferView":36,"componentType":5126,"count":5,"max":[0,0,0,1],"min":[-0.06540312618017197,0,0,0.9978589415550232],"type":"VEC4"},{"bufferView":37,"componentType":5126,"count":7,"max":[1],"min":[0],"type":"SCALAR"},{"bufferView":38,"componentType":5126,"count":7,"max":[1.7134584822254164e-17,0.36243805289268494,-0.9311208128929138,6.099932915942466e-17],"min":[-0.04278125241398811,-0.36209309101104736,-0.9969092011451721,-0.033414389938116074],"type":"VEC4"},{"bufferView":39,"componentType":5126,"count":6,"max":[1],"min":[0],"type":"SCALAR"},{"bufferView":40,"componentType":5126,"count":6,"max":[0.3214394748210907,0,0,0.9990482330322266],"min":[-0.04361938685178757,0,0,0.9469301104545593],"type":"VEC4"},{"bufferView":41,"componentType":5126,"count":2,"max":[0.75],"min":[0],"type":"SCALAR"},{"bufferView":42,"componentType":5126,"count":2,"max":[0,0.5,0.0625],"min":[0,0.5,0],"type":"VEC3"},{"bufferView":43,"componentType":5126,"count":7,"max":[1],"min":[0],"type":"SCALAR"},{"bufferView":44,"componentType":5126,"count":7,"max":[-0.6087614297866821,0,0,0.7933533191680908],"min":[-0.7223639488220215,0,0,0.6915130615234375],"type":"VEC4"},{"bufferView":45,"componentType":5126,"count":7,"max":[1],"min":[0],"type":"SCALAR"},{"bufferView":46,"componentType":5126,"count":7,"max":[1.5848095630968816e-17,0.4226182699203491,-0.9063078165054321,6.099932915942466e-17],"min":[-2.5877905403635593e-17,-0.258819043636322,-0.9961947202682495,5.5495345464113164e-17],"type":"VEC4"},{"bufferView":47,"componentType":5126,"count":5,"max":[1],"min":[0],"type":"SCALAR"},{"bufferView":48,"componentType":5126,"count":5,"max":[0.07058415561914444,0.25771740078926086,-0.9325368404388428,0.22819030284881592],"min":[-0.0307140089571476,-0.29200178384780884,-0.9786853194236755,0.16292135417461395],"type":"VEC4"},{"bufferView":49,"componentType":5126,"count":5,"max":[1],"min":[0],"type":"SCALAR"},{"bufferView":50,"componentType":5126,"count":5,"max":[0.05866479128599167,0.29492783546447754,0.9798517823219299,0.22819030284881592],"min":[-0.05459193140268326,-0.27657222747802734,0.9325368404388428,0.18606095016002655],"type":"VEC4"},{"bufferView":51,"componentType":5126,"count":1,"max":[0],"min":[0],"type":"SCALAR"},{"bufferView":52,"componentType":5126,"count":1,"max":[0,0.203125,0.046875],"min":[0,0.203125,0.046875],"type":"VEC3"},{"bufferView":53,"componentType":5126,"count":6,"max":[1],"min":[0],"type":"SCALAR"},{"bufferView":54,"componentType":5126,"count":6,"max":[0.6087614297866821,0,0,0.9961947202682495],"min":[0.08715574443340302,0,0,0.7933533191680908],"type":"VEC4"},{"bufferView":55,"componentType":5126,"count":5,"max":[1],"min":[0],"type":"SCALAR"},{"bufferView":56,"componentType":5126,"count":5,"max":[-0.6405559182167053,-0.0031338955741375685,-0.022913504391908646,0.7675355672836304],"min":[-0.7641056180000305,-0.007222509942948818,-0.02381957322359085,0.6446436047554016],"type":"VEC4"},{"bufferView":57,"componentType":5126,"count":1,"max":[0],"min":[0],"type":"SCALAR"},{"bufferView":58,"componentType":5126,"count":1,"max":[0,1,-0.5625],"min":[0,1,-0.5625],"type":"VEC3"},{"bufferView":59,"componentType":5126,"count":1,"max":[0],"min":[0],"type":"SCALAR"},{"bufferView":60,"componentType":5126,"count":1,"max":[0.30070579051971436,0,0,0.9537169337272644],"min":[0.30070579051971436,0,0,0.9537169337272644],"type":"VEC4"},{"bufferView":61,"componentType":5126,"count":1,"max":[0],"min":[0],"type":"SCALAR"},{"bufferView":62,"componentType":5126,"count":1,"max":[-0.359375,2.046875,0],"min":[-0.359375,2.046875,0],"type":"VEC3"},{"bufferView":63,"componentType":5126,"count":1,"max":[0],"min":[0],"type":"SCALAR"},{"bufferView":64,"componentType":5126,"count":1,"max":[0.359375,2.046875,0],"min":[0.359375,2.046875,0],"type":"VEC3"},{"bufferView":65,"componentType":5126,"count":1,"max":[0],"min":[0],"type":"SCALAR"},{"bufferView":66,"componentType":5126,"count":1,"max":[0.234375,0.15625,0],"min":[0.234375,0.15625,0],"type":"VEC3"},{"bufferView":67,"componentType":5126,"count":1,"max":[0],"min":[0],"type":"SCALAR"},{"bufferView":68,"componentType":5126,"count":1,"max":[0.13707779347896576,-0.22253647446632385,-0.9556308388710022,0.13585613667964935],"min":[0.13707779347896576,-0.22253647446632385,-0.9556308388710022,0.13585613667964935],"type":"VEC4"},{"bufferView":69,"componentType":5126,"count":1,"max":[0],"min":[0],"type":"SCALAR"},{"bufferView":70,"componentType":5126,"count":1,"max":[-0.234375,0.15625,0],"min":[-0.234375,0.15625,0],"type":"VEC3"},{"bufferView":71,"componentType":5126,"count":1,"max":[0],"min":[0],"type":"SCALAR"},{"bufferView":72,"componentType":5126,"count":1,"max":[-1.9682491360458376e-17,0.3214394748210907,-0.9469301104545593,5.798274704923157e-17],"min":[-1.9682491360458376e-17,0.3214394748210907,-0.9469301104545593,5.798274704923157e-17],"type":"VEC4"},{"bufferView":73,"componentType":5126,"count":1,"max":[0],"min":[0],"type":"SCALAR"},{"bufferView":74,"componentType":5126,"count":1,"max":[0.16547644138336182,-0.24415016174316406,-0.49938061833381653,0.8146331906318665],"min":[0.16547644138336182,-0.24415016174316406,-0.49938061833381653,0.8146331906318665],"type":"VEC4"},{"bufferView":75,"componentType":5126,"count":1,"max":[0],"min":[0],"type":"SCALAR"},{"bufferView":76,"componentType":5126,"count":1,"max":[-0.09600040316581726,-0.13934066891670227,0.6408283114433289,0.7488037943840027],"min":[-0.09600040316581726,-0.13934066891670227,0.6408283114433289,0.7488037943840027],"type":"VEC4"}],"materials":[{"pbrMetallicRoughness":{"metallicFactor":0,"roughnessFactor":1,"baseColorTexture":{"index":0}},"alphaMode":"MASK","alphaCutoff":0.05,"doubleSided":true},{"pbrMetallicRoughness":{"metallicFactor":0,"roughnessFactor":1,"baseColorTexture":{"index":1}},"alphaMode":"MASK","alphaCutoff":0.05,"doubleSided":true},{"pbrMetallicRoughness":{"metallicFactor":0,"roughnessFactor":1,"baseColorTexture":{"index":2}},"alphaMode":"MASK","alphaCutoff":0.05,"doubleSided":true},{"pbrMetallicRoughness":{"metallicFactor":0,"roughnessFactor":1,"baseColorTexture":{"index":3}},"alphaMode":"MASK","alphaCutoff":0.05,"doubleSided":true},{"pbrMetallicRoughness":{"metallicFactor":0,"roughnessFactor":1,"baseColorTexture":{"index":4}},"alphaMode":"MASK","alphaCutoff":0.05,"doubleSided":true},{"pbrMetallicRoughness":{"metallicFactor":0,"roughnessFactor":1,"baseColorTexture":{"index":5}},"alphaMode":"MASK","alphaCutoff":0.05,"doubleSided":true},{"pbrMetallicRoughness":{"metallicFactor":0,"roughnessFactor":1,"baseColorTexture":{"index":6}},"alphaMode":"MASK","alphaCutoff":0.05,"doubleSided":true},{"pbrMetallicRoughness":{"metallicFactor":0,"roughnessFactor":1},"alphaMode":"MASK","alphaCutoff":0.05,"doubleSided":true}],"textures":[{"sampler":0,"source":0,"name":"Head.png"},{"sampler":1,"source":1,"name":"Ears.png"},{"sampler":2,"source":2,"name":"Eye.png"},{"sampler":3,"source":3,"name":"Sweater.png"},{"sampler":4,"source":4,"name":"Legs.png"},{"sampler":5,"source":5,"name":"Shoe Texture.png"},{"sampler":6,"source":6,"name":"Eye_p.png"}],"samplers":[{"magFilter":9728,"minFilter":9728,"wrapS":33071,"wrapT":33071},{"magFilter":9728,"minFilter":9728,"wrapS":33071,"wrapT":33071},{"magFilter":9728,"minFilter":9728,"wrapS":33071,"wrapT":33071},{"magFilter":9728,"minFilter":9728,"wrapS":33071,"wrapT":33071},{"magFilter":9728,"minFilter":9728,"wrapS":33071,"wrapT":33071},{"magFilter":9728,"minFilter":9728,"wrapS":33071,"wrapT":33071},{"magFilter":9728,"minFilter":9728,"wrapS":33071,"wrapT":33071}],"images":[{"mimeType":"image/png","uri":"data:image/png;base64,"},{"mimeType":"image/png","uri":"data:image/png;base64,"},{"mimeType":"image/png","uri":"data:image/png;base64,"},{"mimeType":"image/png","uri":"data:image/png;base64,"},{"mimeType":"image/png","uri":"data:image/png;base64,"},{"mimeType":"image/png","uri":"data:image/png;base64,"},{"mimeType":"image/png","uri":"data:image/png;base64,"}],"meshes":[{"primitives":[{"mode":4,"attributes":{"POSITION":0,"NORMAL":1,"TEXCOORD_0":2,"JOINTS_0":3,"WEIGHTS_0":4},"indices":5,"material":0},{"mode":4,"attributes":{"POSITION":0,"NORMAL":1,"TEXCOORD_0":2,"JOINTS_0":3,"WEIGHTS_0":4},"indices":6,"material":1},{"mode":4,"attributes":{"POSITION":0,"NORMAL":1,"TEXCOORD_0":2,"JOINTS_0":3,"WEIGHTS_0":4},"indices":7,"material":2},{"mode":4,"attributes":{"POSITION":0,"NORMAL":1,"TEXCOORD_0":2,"JOINTS_0":3,"WEIGHTS_0":4},"indices":8,"material":3},{"mode":4,"attributes":{"POSITION":0,"NORMAL":1,"TEXCOORD_0":2,"JOINTS_0":3,"WEIGHTS_0":4},"indices":9,"material":4},{"mode":4,"attributes":{"POSITION":0,"NORMAL":1,"TEXCOORD_0":2,"JOINTS_0":3,"WEIGHTS_0":4},"indices":10,"material":5},{"mode":4,"attributes":{"POSITION":0,"NORMAL":1,"TEXCOORD_0":2,"JOINTS_0":3,"WEIGHTS_0":4},"indices":11,"material":3},{"mode":4,"attributes":{"POSITION":0,"NORMAL":1,"TEXCOORD_0":2,"JOINTS_0":3,"WEIGHTS_0":4},"indices":12,"material":1},{"mode":4,"attributes":{"POSITION":0,"NORMAL":1,"TEXCOORD_0":2,"JOINTS_0":3,"WEIGHTS_0":4},"indices":13,"material":6},{"mode":4,"attributes":{"POSITION":0,"NORMAL":1,"TEXCOORD_0":2,"JOINTS_0":3,"WEIGHTS_0":4},"indices":14,"material":2},{"mode":4,"attributes":{"POSITION":0,"NORMAL":1,"TEXCOORD_0":2,"JOINTS_0":3,"WEIGHTS_0":4},"indices":15,"material":6},{"mode":4,"attributes":{"POSITION":0,"NORMAL":1,"TEXCOORD_0":2,"JOINTS_0":3,"WEIGHTS_0":4},"indices":16,"material":1},{"mode":4,"attributes":{"POSITION":0,"NORMAL":1,"TEXCOORD_0":2,"JOINTS_0":3,"WEIGHTS_0":4},"indices":17,"material":0},{"mode":4,"attributes":{"POSITION":0,"NORMAL":1,"TEXCOORD_0":2,"JOINTS_0":3,"WEIGHTS_0":4},"indices":18,"material":1},{"mode":4,"attributes":{"POSITION":0,"NORMAL":1,"TEXCOORD_0":2,"JOINTS_0":3,"WEIGHTS_0":4},"indices":19,"material":2},{"mode":4,"attributes":{"POSITION":0,"NORMAL":1,"TEXCOORD_0":2,"JOINTS_0":3,"WEIGHTS_0":4},"indices":20,"material":3},{"mode":4,"attributes":{"POSITION":0,"NORMAL":1,"TEXCOORD_0":2,"JOINTS_0":3,"WEIGHTS_0":4},"indices":21,"material":4},{"mode":4,"attributes":{"POSITION":0,"NORMAL":1,"TEXCOORD_0":2,"JOINTS_0":3,"WEIGHTS_0":4},"indices":22,"material":5},{"mode":4,"attributes":{"POSITION":0,"NORMAL":1,"TEXCOORD_0":2,"JOINTS_0":3,"WEIGHTS_0":4},"indices":23,"material":3},{"mode":4,"attributes":{"POSITION":0,"NORMAL":1,"TEXCOORD_0":2,"JOINTS_0":3,"WEIGHTS_0":4},"indices":24,"material":1},{"mode":4,"attributes":{"POSITION":0,"NORMAL":1,"TEXCOORD_0":2,"JOINTS_0":3,"WEIGHTS_0":4},"indices":25,"material":6},{"mode":4,"attributes":{"POSITION":0,"NORMAL":1,"TEXCOORD_0":2,"JOINTS_0":3,"WEIGHTS_0":4},"indices":26,"material":2},{"mode":4,"attributes":{"POSITION":0,"NORMAL":1,"TEXCOORD_0":2,"JOINTS_0":3,"WEIGHTS_0":4},"indices":27,"material":6},{"mode":4,"attributes":{"POSITION":0,"NORMAL":1,"TEXCOORD_0":2,"JOINTS_0":3,"WEIGHTS_0":4},"indices":28,"material":1},{"mode":4,"attributes":{"POSITION":0,"NORMAL":1,"TEXCOORD_0":2,"JOINTS_0":3,"WEIGHTS_0":4},"indices":29,"material":7}]}],"skins":[{"inverseBindMatrices":30,"joints":[17,8,1,0,4,3,2,7,6,5,9,10,13,12,11,16,15,14],"skeleton":17}],"animations":[{"name":"Walk","samplers":[{"input":31,"output":32,"interpolation":"LINEAR"},{"input":33,"output":34,"interpolation":"LINEAR"},{"input":35,"output":36,"interpolation":"LINEAR"},{"input":37,"output":38,"interpolation":"LINEAR"},{"input":39,"output":40,"interpolation":"LINEAR"},{"input":41,"output":42,"interpolation":"LINEAR"},{"input":43,"output":44,"interpolation":"LINEAR"},{"input":45,"output":46,"interpolation":"LINEAR"},{"input":47,"output":48,"interpolation":"LINEAR"},{"input":49,"output":50,"interpolation":"LINEAR"},{"input":51,"output":52,"interpolation":"LINEAR"},{"input":53,"output":54,"interpolation":"LINEAR"},{"input":55,"output":56,"interpolation":"LINEAR"}],"channels":[{"sampler":0,"target":{"node":17,"path":"translation"}},{"sampler":1,"target":{"node":1,"path":"translation"}},{"sampler":2,"target":{"node":1,"path":"rotation"}},{"sampler":3,"target":{"node":13,"path":"rotation"}},{"sampler":4,"target":{"node":12,"path":"rotation"}},{"sampler":5,"target":{"node":11,"path":"translation"}},{"sampler":6,"target":{"node":11,"path":"rotation"}},{"sampler":7,"target":{"node":16,"path":"rotation"}},{"sampler":8,"target":{"node":4,"path":"rotation"}},{"sampler":9,"target":{"node":7,"path":"rotation"}},{"sampler":10,"target":{"node":15,"path":"translation"}},{"sampler":11,"target":{"node":15,"path":"rotation"}},{"sampler":12,"target":{"node":14,"path":"rotation"}}]},{"name":"animation","samplers":[{"input":57,"output":58,"interpolation":"LINEAR"},{"input":59,"output":60,"interpolation":"LINEAR"},{"input":61,"output":62,"interpolation":"LINEAR"},{"input":63,"output":64,"interpolation":"LINEAR"},{"input":65,"output":66,"interpolation":"LINEAR"},{"input":67,"output":68,"interpolation":"LINEAR"},{"input":69,"output":70,"interpolation":"LINEAR"},{"input":71,"output":72,"interpolation":"LINEAR"},{"input":73,"output":74,"interpolation":"LINEAR"},{"input":75,"output":76,"interpolation":"LINEAR"}],"channels":[{"sampler":0,"target":{"node":17,"path":"translation"}},{"sampler":1,"target":{"node":17,"path":"rotation"}},{"sampler":2,"target":{"node":9,"path":"translation"}},{"sampler":3,"target":{"node":10,"path":"translation"}},{"sampler":4,"target":{"node":13,"path":"translation"}},{"sampler":5,"target":{"node":13,"path":"rotation"}},{"sampler":6,"target":{"node":16,"path":"translation"}},{"sampler":7,"target":{"node":16,"path":"rotation"}},{"sampler":8,"target":{"node":4,"path":"rotation"}},{"sampler":9,"target":{"node":7,"path":"rotation"}}]}]}