{"asset":{"version":"2.0","generator":"Blockbench 5.1.1 glTF exporter"},"scenes":[{"nodes":[0,1,2,3,4,5,6,7,8,9,10,11,12,13,14,15,16],"name":"blockbench_export"}],"scene":0,"nodes":[{"translation":[0,0.5,0],"name":"cylinder","mesh":0},{"rotation":[-0.3668280887435441,-0.6045139810697169,-0.6045139810697172,0.36682808874354483],"translation":[0.011015168305472972,1.9279814670710982,0.04092804451762028],"name":"mesh","mesh":1},{"rotation":[0.10120764198789153,-0.8384849787980161,0.16678503214499538,0.5088051754706648],"translation":[0.011015168305472972,1.9279814670710982,0.04092804451762028],"name":"mesh","mesh":2},{"rotation":[-0.6868425644167339,-0.1680693062562126,-0.16806930625621247,0.6868425644167342],"translation":[0.011015168305472972,1.9279814670710982,0.04092804451762028],"name":"mesh","mesh":3},{"rotation":[0.23491958755637396,0.14776384480871574,-0.03615758279022928,0.9600371153015163],"translation":[0.011015168305472972,1.9279814670710982,0.04092804451762028],"name":"mesh","mesh":4},{"rotation":[0.27180969368266805,-0.22819030631733225,0.06651140889870966,0.9325368126831483],"translation":[0.011015168305472972,1.9279814670710982,0.04092804451762028],"name":"mesh","mesh":5},{"rotation":[0.25486608241550784,-0.48766243314935653,0.19394392504003383,0.8121664763267975],"translation":[0.011015168305472972,1.9279814670710982,0.04092804451762028],"name":"mesh","mesh":6},{"rotation":[0.04637021727260278,-0.9526780043092546,0.23311882455301366,0.18949943718768328],"translation":[0.011015168305472972,1.9279814670710982,0.04092804451762028],"name":"mesh","mesh":7},{"rotation":[0.1826422310226839,0.832665010377756,-0.26308322157222325,0.4517720824341058],"translation":[0.011015168305472972,1.9279814670710982,0.04092804451762028],"name":"mesh","mesh":8},{"rotation":[0.17304722907653383,-0.29492782188567707,0.09008268564652368,0.9353915469649133],"translation":[0.2865281560095563,1.8872129341421964,-0.37854013032427714],"name":"mesh","mesh":9},{"rotation":[0.046009129411078376,-0.900921000084026,0.09866689642867599,0.4201063617318428],"translation":[0.044340656009556445,1.8559629341421964,0.40270986967572275],"name":"mesh","mesh":10},{"rotation":[0.08244873277289064,0.9473658323856462,-0.17681187801870324,0.2538459097245715],"translation":[0.044340656009556445,1.8559629341421964,0.40270986967572275],"name":"mesh","mesh":11},{"translation":[0.75,2.1875,-0.03125],"name":"mesh","mesh":12},{"rotation":[0.10057987744419786,0.38040889147518975,-0.04166154933921041,0.9183883050467183],"translation":[-0.3384718439904437,1.8247129341421964,-0.33166513032427714],"name":"mesh","mesh":13},{"rotation":[-0.7071067811865475,0,0,0.7071067811865476],"translation":[0.75,2.0625,-0.09375],"name":"mesh","mesh":14},{"rotation":[0,-0.7071067811865475,0,0.7071067811865476],"translation":[-0.02023483169452689,1.734375,-0.013692128709407392],"name":"mesh","mesh":15},{"rotation":[-0.5514616025761822,-0.4425947282115091,-0.5514616104981018,0.4425947351588462],"translation":[0.04226516830547311,1.734375,0.04880787129059261],"name":"mesh","mesh":16}],"bufferViews":[{"buffer":0,"byteOffset":0,"byteLength":1440,"target":34962,"byteStride":12},{"buffer":0,"byteOffset":1440,"byteLength":1440,"target":34962,"byteStride":12},{"buffer":0,"byteOffset":2880,"byteLength":960,"target":34962,"byteStride":8},{"buffer":0,"byteOffset":3840,"byteLength":288,"target":34963},{"buffer":0,"byteOffset":4128,"byteLength":1056,"target":34962,"byteStride":12},{"buffer":0,"byteOffset":5184,"byteLength":1056,"target":34962,"byteStride":12},{"buffer":0,"byteOffset":6240,"byteLength":704,"target":34962,"byteStride":8},{"buffer":0,"byteOffset":6944,"byteLength":264,"target":34963},{"buffer":0,"byteOffset":7208,"byteLength":1056,"target":34962,"byteStride":12},{"buffer":0,"byteOffset":8264,"byteLength":1056,"target":34962,"byteStride":12},{"buffer":0,"byteOffset":9320,"byteLength":704,"target":34962,"byteStride":8},{"buffer":0,"byteOffset":10024,"byteLength":264,"target":34963},{"buffer":0,"byteOffset":10288,"byteLength":1056,"target":34962,"byteStride":12},{"buffer":0,"byteOffset":11344,"byteLength":1056,"target":34962,"byteStride":12},{"buffer":0,"byteOffset":12400,"byteLength":704,"target":34962,"byteStride":8},{"buffer":0,"byteOffset":13104,"byteLength":264,"target":34963},{"buffer":0,"byteOffset":13368,"byteLength":1056,"target":34962,"byteStride":12},{"buffer":0,"byteOffset":14424,"byteLength":1056,"target":34962,"byteStride":12},{"buffer":0,"byteOffset":15480,"byteLength":704,"target":34962,"byteStride":8},{"buffer":0,"byteOffset":16184,"byteLength":264,"target":34963},{"buffer":0,"byteOffset":16448,"byteLength":1056,"target":34962,"byteStride":12},{"buffer":0,"byteOffset":17504,"byteLength":1056,"target":34962,"byteStride":12},{"buffer":0,"byteOffset":18560,"byteLength":704,"target":34962,"byteStride":8},{"buffer":0,"byteOffset":19264,"byteLength":264,"target":34963},{"buffer":0,"byteOffset":19528,"byteLength":1056,"target":34962,"byteStride":12},{"buffer":0,"byteOffset":20584,"byteLength":1056,"target":34962,"byteStride":12},{"buffer":0,"byteOffset":21640,"byteLength":704,"target":34962,"byteStride":8},{"buffer":0,"byteOffset":22344,"byteLength":264,"target":34963},{"buffer":0,"byteOffset":22608,"byteLength":1056,"target":34962,"byteStride":12},{"buffer":0,"byteOffset":23664,"byteLength":1056,"target":34962,"byteStride":12},{"buffer":0,"byteOffset":24720,"byteLength":704,"target":34962,"byteStride":8},{"buffer":0,"byteOffset":25424,"byteLength":264,"target":34963},{"buffer":0,"byteOffset":25688,"byteLength":1056,"target":34962,"byteStride":12},{"buffer":0,"byteOffset":26744,"byteLength":1056,"target":34962,"byteStride":12},{"buffer":0,"byteOffset":27800,"byteLength":704,"target":34962,"byteStride":8},{"buffer":0,"byteOffset":28504,"byteLength":264,"target":34963},{"buffer":0,"byteOffset":28768,"byteLength":1056,"target":34962,"byteStride":12},{"buffer":0,"byteOffset":29824,"byteLength":1056,"target":34962,"byteStride":12},{"buffer":0,"byteOffset":30880,"byteLength":704,"target":34962,"byteStride":8},{"buffer":0,"byteOffset":31584,"byteLength":264,"target":34963},{"buffer":0,"byteOffset":31848,"byteLength":1056,"target":34962,"byteStride":12},{"buffer":0,"byteOffset":32904,"byteLength":1056,"target":34962,"byteStride":12},{"buffer":0,"byteOffset":33960,"byteLength":704,"target":34962,"byteStride":8},{"buffer":0,"byteOffset":34664,"byteLength":264,"target":34963},{"buffer":0,"byteOffset":34928,"byteLength":1056,"target":34962,"byteStride":12},{"buffer":0,"byteOffset":35984,"byteLength":1056,"target":34962,"byteStride":12},{"buffer":0,"byteOffset":37040,"byteLength":704,"target":34962,"byteStride":8},{"buffer":0,"byteOffset":37744,"byteLength":264,"target":34963},{"buffer":0,"byteOffset":38008,"byteLength":1056,"target":34962,"byteStride":12},{"buffer":0,"byteOffset":39064,"byteLength":1056,"target":34962,"byteStride":12},{"buffer":0,"byteOffset":40120,"byteLength":704,"target":34962,"byteStride":8},{"buffer":0,"byteOffset":40824,"byteLength":264,"target":34963},{"buffer":0,"byteOffset":41088,"byteLength":1056,"target":34962,"byteStride":12},{"buffer":0,"byteOffset":42144,"byteLength":1056,"target":34962,"byteStride":12},{"buffer":0,"byteOffset":43200,"byteLength":704,"target":34962,"byteStride":8},{"buffer":0,"byteOffset":43904,"byteLength":264,"target":34963},{"buffer":0,"byteOffset":44168,"byteLength":1056,"target":34962,"byteStride":12},{"buffer":0,"byteOffset":45224,"byteLength":1056,"target":34962,"byteStride":12},{"buffer":0,"byteOffset":46280,"byteLength":704,"target":34962,"byteStride":8},{"buffer":0,"byteOffset":46984,"byteLength":264,"target":34963},{"buffer":0,"byteOffset":47248,"byteLength":1056,"target":34962,"byteStride":12},{"buffer":0,"byteOffset":48304,"byteLength":1056,"target":34962,"byteStride":12},{"buffer":0,"byteOffset":49360,"byteLength":704,"target":34962,"byteStride":8},{"buffer":0,"byteOffset":50064,"byteLength":264,"target":34963},{"buffer":0,"byteOffset":50328,"byteLength":1056,"target":34962,"byteStride":12},{"buffer":0,"byteOffset":51384,"byteLength":1056,"target":34962,"byteStride":12},{"buffer":0,"byteOffset":52440,"byteLength":704,"target":34962,"byteStride":8},{"buffer":0,"byteOffset":53144,"byteLength":264,"target":34963}],"buffers":[{"byteLength":53408,"uri":"data:application/octet-stream;base64,"}],"accessors":[{"bufferView":0,"componentType":5126,"count":120,"max":[0.125,1.5,0.125],"min":[-0.125,-0.5,-0.125],"type":"VEC3"},{"bufferView":1,"componentType":5126,"count":120,"max":[1,1,1],"min":[-1,-1,-1],"type":"VEC3"},{"bufferView":2,"componentType":5126,"count":120,"max":[0.75,1],"min":[0.012259375303983688,0],"type":"VEC2"},{"bufferView":3,"componentType":5123,"count":144,"max":[119],"min":[0],"type":"SCALAR"},{"bufferView":4,"componentType":5126,"count":88,"max":[0.10307617485523224,0.025672534480690956,0.29141899943351746],"min":[-0.14692382514476776,-0.7256284356117249,-0.4598819315433502],"type":"VEC3"},{"bufferView":5,"componentType":5126,"count":88,"max":[1,0.7071067690849304,0.7071067690849304],"min":[-1,-0.7071067690849304,-0.7071067690849304],"type":"VEC3"},{"bufferView":6,"componentType":5126,"count":88,"max":[0.125,0.5],"min":[0,0],"type":"VEC2"},{"bufferView":7,"componentType":5123,"count":132,"max":[87],"min":[0],"type":"SCALAR"},{"bufferView":8,"componentType":5126,"count":88,"max":[0.10018347948789597,0.29235121607780457,0.05313139036297798],"min":[-0.14981651306152344,-0.39831414818763733,-0.7530872821807861],"type":"VEC3"},{"bufferView":9,"componentType":5126,"count":88,"max":[1,0.7660444378852844,0.7660444378852844],"min":[-1,-0.7660444378852844,-0.7660444378852844],"type":"VEC3"},{"bufferView":10,"componentType":5126,"count":88,"max":[0.125,0.5],"min":[0,0],"type":"VEC2"},{"bufferView":11,"componentType":5123,"count":132,"max":[87],"min":[0],"type":"SCALAR"},{"bufferView":12,"componentType":5126,"count":88,"max":[0.11398483067750931,0.07282852381467819,0.29141899943351746],"min":[-0.1360151618719101,-0.6784724593162537,-0.4598819315433502],"type":"VEC3"},{"bufferView":13,"componentType":5126,"count":88,"max":[1,0.7071067690849304,0.7071067690849304],"min":[-1,-0.7071067690849304,-0.7071067690849304],"type":"VEC3"},{"bufferView":14,"componentType":5126,"count":88,"max":[0.125,0.5],"min":[0,0],"type":"VEC2"},{"bufferView":15,"componentType":5123,"count":132,"max":[87],"min":[0],"type":"SCALAR"},{"bufferView":16,"componentType":5126,"count":88,"max":[0.1413385272026062,0.2560376226902008,-0.10007904469966888],"min":[-0.1086614727973938,-0.4346277713775635,-0.9062976837158203],"type":"VEC3"},{"bufferView":17,"componentType":5126,"count":88,"max":[1,0.7660444378852844,0.7660444378852844],"min":[-1,-0.7660444378852844,-0.7660444378852844],"type":"VEC3"},{"bufferView":18,"componentType":5126,"count":88,"max":[0.125,0.5],"min":[0,0],"type":"VEC2"},{"bufferView":19,"componentType":5123,"count":132,"max":[87],"min":[0],"type":"SCALAR"},{"bufferView":20,"componentType":5126,"count":88,"max":[0.11398483067750931,0.29235121607780457,-0.012818709947168827],"min":[-0.1360151618719101,-0.39831414818763733,-0.8190373778343201],"type":"VEC3"},{"bufferView":21,"componentType":5126,"count":88,"max":[1,0.7660444378852844,0.7660444378852844],"min":[-1,-0.7660444378852844,-0.7660444378852844],"type":"VEC3"},{"bufferView":22,"componentType":5126,"count":88,"max":[0.125,0.5],"min":[0,0],"type":"VEC2"},{"bufferView":23,"componentType":5123,"count":132,"max":[87],"min":[0],"type":"SCALAR"},{"bufferView":24,"componentType":5126,"count":88,"max":[0.10919158160686493,0.23509187996387482,-0.09343165159225464],"min":[-0.14080841839313507,-0.45557349920272827,-0.8996503353118896],"type":"VEC3"},{"bufferView":25,"componentType":5126,"count":88,"max":[1,0.7660444378852844,0.7660444378852844],"min":[-1,-0.7660444378852844,-0.7660444378852844],"type":"VEC3"},{"bufferView":26,"componentType":5126,"count":88,"max":[0.125,0.5],"min":[0,0],"type":"VEC2"},{"bufferView":27,"componentType":5123,"count":132,"max":[87],"min":[0],"type":"SCALAR"},{"bufferView":28,"componentType":5126,"count":88,"max":[0.14317606389522552,0.26884230971336365,-0.04232078045606613],"min":[-0.10682393610477448,-0.42182308435440063,-0.8485394716262817],"type":"VEC3"},{"bufferView":29,"componentType":5126,"count":88,"max":[1,0.7660444378852844,0.7660444378852844],"min":[-1,-0.7660444378852844,-0.7660444378852844],"type":"VEC3"},{"bufferView":30,"componentType":5126,"count":88,"max":[0.125,0.5],"min":[0,0],"type":"VEC2"},{"bufferView":31,"componentType":5123,"count":132,"max":[87],"min":[0],"type":"SCALAR"},{"bufferView":32,"componentType":5126,"count":88,"max":[0.14598682522773743,0.23438867926597595,-0.08866751194000244],"min":[-0.10401318222284317,-0.45627671480178833,-0.8948861956596375],"type":"VEC3"},{"bufferView":33,"componentType":5126,"count":88,"max":[1,0.7660444378852844,0.7660444378852844],"min":[-1,-0.7660444378852844,-0.7660444378852844],"type":"VEC3"},{"bufferView":34,"componentType":5126,"count":88,"max":[0.125,0.5],"min":[0,0],"type":"VEC2"},{"bufferView":35,"componentType":5123,"count":132,"max":[87],"min":[0],"type":"SCALAR"},{"bufferView":36,"componentType":5126,"count":88,"max":[0.125,0.34533268213272095,0.4031093418598175],"min":[-0.125,-0.34533268213272095,-0.4031093418598175],"type":"VEC3"},{"bufferView":37,"componentType":5126,"count":88,"max":[1,0.7660444378852844,0.7660444378852844],"min":[-1,-0.7660444378852844,-0.7660444378852844],"type":"VEC3"},{"bufferView":38,"componentType":5126,"count":88,"max":[0.125,0.5],"min":[0,0],"type":"VEC2"},{"bufferView":39,"componentType":5123,"count":132,"max":[87],"min":[0],"type":"SCALAR"},{"bufferView":40,"componentType":5126,"count":88,"max":[-0.11254368722438812,0.2729749381542206,0.22110672295093536],"min":[-0.36254367232322693,-0.4176904261112213,-0.5851119756698608],"type":"VEC3"},{"bufferView":41,"componentType":5126,"count":88,"max":[1,0.7660444378852844,0.7660444378852844],"min":[-1,-0.7660444378852844,-0.7660444378852844],"type":"VEC3"},{"bufferView":42,"componentType":5126,"count":88,"max":[0.125,0.5],"min":[0,0],"type":"VEC2"},{"bufferView":43,"componentType":5123,"count":132,"max":[87],"min":[0],"type":"SCALAR"},{"bufferView":44,"componentType":5126,"count":88,"max":[0.3555978536605835,0.28329989314079285,0.20877932012081146],"min":[0.10559786111116409,-0.40736550092697144,-0.5974393486976624],"type":"VEC3"},{"bufferView":45,"componentType":5126,"count":88,"max":[1,0.7660444378852844,0.7660444378852844],"min":[-1,-0.7660444378852844,-0.7660444378852844],"type":"VEC3"},{"bufferView":46,"componentType":5126,"count":88,"max":[0.6546797156333923,1],"min":[0,0],"type":"VEC2"},{"bufferView":47,"componentType":5123,"count":132,"max":[87],"min":[0],"type":"SCALAR"},{"bufferView":48,"componentType":5126,"count":88,"max":[-0.625,-0.09216730296611786,0.05935933440923691],"min":[-0.875,-0.782832682132721,-0.7468593120574951],"type":"VEC3"},{"bufferView":49,"componentType":5126,"count":88,"max":[1,0.7660444378852844,0.7660444378852844],"min":[-1,-0.7660444378852844,-0.7660444378852844],"type":"VEC3"},{"bufferView":50,"componentType":5126,"count":88,"max":[0.125,0.5],"min":[0,0],"type":"VEC2"},{"bufferView":51,"componentType":5123,"count":132,"max":[87],"min":[0],"type":"SCALAR"},{"bufferView":52,"componentType":5126,"count":88,"max":[0.125,0.34533268213272095,0.4031093418598175],"min":[-0.125,-0.34533268213272095,-0.4031093418598175],"type":"VEC3"},{"bufferView":53,"componentType":5126,"count":88,"max":[1,0.7660444378852844,0.7660444378852844],"min":[-1,-0.7660444378852844,-0.7660444378852844],"type":"VEC3"},{"bufferView":54,"componentType":5126,"count":88,"max":[0.125,0.5],"min":[0,0],"type":"VEC2"},{"bufferView":55,"componentType":5123,"count":132,"max":[87],"min":[0],"type":"SCALAR"},{"bufferView":56,"componentType":5126,"count":88,"max":[-0.625,-0.06184952333569527,0.03190047666430473],"min":[-0.875,-0.8131504654884338,-0.7194004654884338],"type":"VEC3"},{"bufferView":57,"componentType":5126,"count":88,"max":[1,0.7071067690849304,0.7071067690849304],"min":[-1,-0.7071067690849304,-0.7071067690849304],"type":"VEC3"},{"bufferView":58,"componentType":5126,"count":88,"max":[0.125,0.5],"min":[0,0],"type":"VEC2"},{"bufferView":59,"componentType":5123,"count":132,"max":[87],"min":[0],"type":"SCALAR"},{"bufferView":60,"componentType":5126,"count":88,"max":[0.15480364859104156,0.36095768213272095,0.02188139036297798],"min":[-0.09519634395837784,-0.32970768213272095,-0.7843372821807861],"type":"VEC3"},{"bufferView":61,"componentType":5126,"count":88,"max":[1,0.7660444378852844,0.7660444378852844],"min":[-1,-0.7660444378852844,-0.7660444378852844],"type":"VEC3"},{"bufferView":62,"componentType":5126,"count":88,"max":[0.125,0.5],"min":[0,0],"type":"VEC2"},{"bufferView":63,"componentType":5123,"count":132,"max":[87],"min":[0],"type":"SCALAR"},{"bufferView":64,"componentType":5126,"count":88,"max":[0.09519634395837784,-0.0055774664506316185,0.36002546548843384],"min":[-0.15480364859104156,-0.7568784356117249,-0.39127546548843384],"type":"VEC3"},{"bufferView":65,"componentType":5126,"count":88,"max":[1,0.7071067690849304,0.7071067690849304],"min":[-1,-0.7071067690849304,-0.7071067690849304],"type":"VEC3"},{"bufferView":66,"componentType":5126,"count":88,"max":[0.125,0.5],"min":[0,0],"type":"VEC2"},{"bufferView":67,"componentType":5123,"count":132,"max":[87],"min":[0],"type":"SCALAR"}],"materials":[{"pbrMetallicRoughness":{"metallicFactor":0,"roughnessFactor":1,"baseColorTexture":{"index":0}},"alphaMode":"MASK","alphaCutoff":0.05,"doubleSided":true},{"pbrMetallicRoughness":{"metallicFactor":0,"roughnessFactor":1,"baseColorTexture":{"index":1}},"alphaMode":"MASK","alphaCutoff":0.05,"doubleSided":true}],"textures":[{"sampler":0,"source":0,"name":"TreeWood"},{"sampler":1,"source":1,"name":"Leaves"}],"samplers":[{"magFilter":9728,"minFilter":9728,"wrapS":33071,"wrapT":33071},{"magFilter":9728,"minFilter":9728,"wrapS":33071,"wrapT":33071}],"images":[{"mimeType":"image/png","uri":"data:image/png;base64,"},{"mimeType":"image/png","uri":"data:image/png;base64,"}],"meshes":[{"primitives":[{"mode":4,"attributes":{"POSITION":0,"NORMAL":1,"TEXCOORD_0":2},"indices":3,"material":0}]},{"primitives":[{"mode":4,"attributes":{"POSITION":4,"NORMAL":5,"TEXCOORD_0":6},"indices":7,"material":1}]},{"primitives":[{"mode":4,"attributes":{"POSITION":8,"NORMAL":9,"TEXCOORD_0":10},"indices":11,"material":1}]},{"primitives":[{"mode":4,"attributes":{"POSITION":12,"NORMAL":13,"TEXCOORD_0":14},"indices":15,"material":1}]},{"primitives":[{"mode":4,"attributes":{"POSITION":16,"NORMAL":17,"TEXCOORD_0":18},"indices":19,"material":1}]},{"primitives":[{"mode":4,"attributes":{"POSITION":20,"NORMAL":21,"TEXCOORD_0":22},"indices":23,"material":1}]},{"primitives":[{"mode":4,"attributes":{"POSITION":24,"NORMAL":25,"TEXCOORD_0":26},"indices":27,"material":1}]},{"primitives":[{"mode":4,"attributes":{"POSITION":28,"NORMAL":29,"TEXCOORD_0":30},"indices":31,"material":1}]},{"primitives":[{"mode":4,"attributes":{"POSITION":32,"NORMAL":33,"TEXCOORD_0":34},"indices":35,"material":1}]},{"primitives":[{"mode":4,"attributes":{"POSITION":36,"NORMAL":37,"TEXCOORD_0":38},"indices":39,"material":1}]},{"primitives":[{"mode":4,"attributes":{"POSITION":40,"NORMAL":41,"TEXCOORD_0":42},"indices":43,"material":1}]},{"primitives":[{"mode":4,"attributes":{"POSITION":44,"NORMAL":45,"TEXCOORD_0":46},"indices":47,"material":1}]},{"primitives":[{"mode":4,"attributes":{"POSITION":48,"NORMAL":49,"TEXCOORD_0":50},"indices":51,"material":1}]},{"primitives":[{"mode":4,"attributes":{"POSITION":52,"NORMAL":53,"TEXCOORD_0":54},"indices":55,"material":1}]},{"primitives":[{"mode":4,"attributes":{"POSITION":56,"NORMAL":57,"TEXCOORD_0":58},"indices":59,"material":1}]},{"primitives":[{"mode":4,"attributes":{"POSITION":60,"NORMAL":61,"TEXCOORD_0":62},"indices":63,"material":1}]},{"primitives":[{"mode":4,"attributes":{"POSITION":64,"NORMAL":65,"TEXCOORD_0":66},"indices":67,"material":1}]}]}